<svg width="758" height="2271" viewBox="0 0 758 2271" fill="none" xmlns="http://www.w3.org/2000/svg">
<g clip-path="url(#clip0_1600_1545)">
<path d="M75.8001 -222L113.7 -108.3C151.6 5.4 227.4 232.8 290.646 460.2C352.944 687.6 405.056 915 366.446 1142.4C329.256 1369.8 201.344 1597.2 164.154 1824.6C125.544 2052 177.656 2279.4 164.154 2506.8C151.6 2734.2 75.8 2961.6 37.9 3075.3L-9.41375e-06 3189L-4.44376e-06 3075.3C5.26225e-07 2961.6 1.04662e-05 2734.2 2.04062e-05 2506.8C3.03461e-05 2279.4 4.02861e-05 2052 5.02261e-05 1824.6C6.0166e-05 1597.2 7.0106e-05 1369.8 8.0046e-05 1142.4C8.9986e-05 915 9.99259e-05 687.6 0.000109866 460.2C0.000119806 232.8 0.000129746 5.39999 0.000134716 -108.3L0.000139686 -222L75.8001 -222Z" fill="#081427"/>
</g>
<defs>
<clipPath id="clip0_1600_1545">
<rect width="3411" height="758" fill="white" transform="translate(758 -222) rotate(90)"/>
</clipPath>
</defs>
</svg>
